<?xml version="1.0" encoding="UTF-8"?>
<svg width="187px" height="18px" viewBox="0 0 187 18" version="1.1" xmlns="http://www.w3.org/2000/svg" xmlns:xlink="http://www.w3.org/1999/xlink">
    <!-- Generator: Sketch 43.2 (39069) - http://www.bohemiancoding.com/sketch -->
    <title>Group</title>
    <desc>Created with Sketch.</desc>
    <defs></defs>
    <g id="Logo-Exploration" stroke="none" stroke-width="1" fill="none" fill-rule="evenodd">
        <g id="Group">
            <g id="Group-2" transform="translate(170.000000, 1.000000)">
                <rect id="Rectangle-3" fill="#9B9B9B" x="0" y="0" width="6.61111111" height="6.61111111"></rect>
                <rect id="Rectangle-3-Copy" fill="#4F4F4F" x="10.3888889" y="10.3888889" width="6.61111111" height="6.61111111"></rect>
                <rect id="Rectangle-3-Copy-2" fill="#FFFFFF" x="0" y="10.3888889" width="6.61111111" height="6.61111111"></rect>
            </g>
            <path d="M9.75184084,6.62436224 C10.5750773,7.41220632 10.9866893,8.49276524 10.9866893,9.86607143 L10.9866893,16.8482143 L9.41716228,16.8482143 L9.41716228,10.2130102 C9.41716228,9.14327696 9.10172127,8.30484997 8.47082979,7.69770408 C7.83993832,7.09055819 6.96285844,6.7869898 5.83956386,6.7869898 C4.50084292,6.80144565 3.45065518,7.21704524 2.68896913,8.03380102 C1.92728308,8.8505568 1.54644577,9.93111573 1.54644577,11.2755102 L1.54644577,16.8482143 L0,16.8482143 L0,0.758928571 L1.54644577,0.758928571 L1.54644577,8.1747449 C2.36198841,6.38221893 3.96227449,5.47151375 6.34735202,5.44260204 C7.79378614,5.44260204 8.9286044,5.83651817 9.75184084,6.62436224 Z M22.7119796,16.8482143 L22.6888983,14.940051 C22.2118828,15.6050203 21.5886945,16.1001259 20.8193146,16.4253827 C20.0499348,16.7506394 19.1651612,16.9132653 18.1649674,16.9132653 C17.3494248,16.9132653 16.6300654,16.765095 16.0068677,16.46875 C15.3836701,16.172405 14.9028149,15.7640332 14.5642877,15.2436224 C14.2257606,14.7232117 14.0564996,14.1377584 14.0564996,13.4872449 C14.0564996,12.5042468 14.4604179,11.7308702 15.2682668,11.1670918 C16.0761156,10.6033135 17.1878528,10.3214286 18.6035118,10.3214286 L22.665817,10.3214286 L22.665817,9.45408163 C22.665817,8.55781865 22.3811508,7.86394804 21.8118097,7.37244898 C21.2424686,6.88094992 20.4115508,6.63520408 19.3190314,6.63520408 C18.0264733,6.63520408 16.7262408,7.09055667 15.4182951,8.00127551 L14.7258567,7.00382653 C15.5413993,6.46895991 16.3184613,6.07504378 17.057066,5.82206633 C17.7956706,5.56908887 18.6419758,5.44260204 19.5960068,5.44260204 C21.0578285,5.44260204 22.1887999,5.78592344 22.988955,6.47257653 C23.78911,7.15922962 24.1968752,8.10968781 24.2122628,9.32397959 L24.2353441,16.8482143 L22.7119796,16.8482143 Z M21.1770745,14.9942602 C21.9233729,14.5244449 22.4273092,13.8630995 22.6888983,13.0102041 L22.6888983,11.4489796 L18.788162,11.4489796 C17.7264178,11.4489796 16.9185811,11.6152194 16.3646276,11.9477041 C15.8106741,12.2801887 15.5337015,12.7789082 15.5337015,13.4438776 C15.5337015,14.1233027 15.7991336,14.669003 16.3300057,15.0809949 C16.8608778,15.4929868 17.5648498,15.6989796 18.4419428,15.6989796 C19.5190746,15.6989796 20.430776,15.4640755 21.1770745,14.9942602 Z M28.4822996,0.758928571 L30.0287454,0.758928571 L30.0287454,16.8482143 L28.4822996,16.8482143 L28.4822996,0.758928571 Z M34.7834891,0.758928571 L36.3299349,0.758928571 L36.3299349,16.8482143 L34.7834891,16.8482143 L34.7834891,0.758928571 Z M49.9709714,7.12308673 C50.9557776,8.24341547 51.4097049,9.7504157 51.3327669,11.6441327 L41.2462475,11.6441327 C41.3539607,12.8584244 41.8309691,13.8377939 42.6772869,14.5822704 C43.5236047,15.3267469 44.5699456,15.6989796 45.816341,15.6989796 C46.5857208,15.6989796 47.3012334,15.5688789 47.9629,15.3086735 C48.6245667,15.0484681 49.1938992,14.6798493 49.6709148,14.2028061 L50.5480034,15.0267857 C49.9632747,15.6194758 49.2593027,16.0784423 48.4360663,16.403699 C47.6128298,16.7289557 46.7088221,16.8915816 45.7240159,16.8915816 C44.5545585,16.8915816 43.5159113,16.6494497 42.608043,16.1651786 C41.7001748,15.6809074 40.9885091,15.0051064 40.4730246,14.1377551 C39.9575401,13.2704038 39.6998018,12.2801926 39.6998018,11.1670918 C39.6998018,10.0684469 39.9575401,9.08184961 40.4730246,8.20727041 C40.9885091,7.33269121 41.7001748,6.65327623 42.608043,6.1690051 C43.5159113,5.68473397 44.5391711,5.44260204 45.6778533,5.44260204 C47.5551401,5.44260204 48.9861652,6.002758 49.9709714,7.12308673 Z M49.9478901,10.5165816 C49.8709521,9.33120156 49.4516464,8.38797119 48.6899604,7.68686224 C47.9282743,6.9857533 46.9319423,6.63520408 45.7009346,6.63520408 C44.4853144,6.63520408 43.4697482,6.98936721 42.6542056,7.69770408 C41.838663,8.40604096 41.3693483,9.34565741 41.2462475,10.5165816 L49.9478901,10.5165816 Z M60.6576041,16.067602 C59.8266738,16.6024687 58.9342066,16.8843536 57.9801756,16.9132653 C57.0569198,16.9132653 56.3260199,16.645836 55.787454,16.1109694 C55.2488881,15.5761028 54.9796092,14.7738149 54.9796092,13.7040816 L54.9796092,6.93877551 L53.2485132,6.93877551 L53.2254319,5.81122449 L54.9796092,5.81122449 L54.9796092,2.88392857 L56.5260549,2.88392857 L56.5260549,5.81122449 L60.4498726,5.78954082 L60.4498726,6.93877551 L56.5260549,6.93877551 L56.5260549,13.4655612 C56.5260549,14.8677791 57.0800001,15.5688776 58.1879071,15.5688776 C58.803411,15.5688776 59.4727614,15.3664986 60.1959785,14.9617347 L60.6576041,16.067602 Z M69.5438969,16.067602 C68.7129667,16.6024687 67.8204994,16.8843536 66.8664684,16.9132653 C65.9432126,16.9132653 65.2123127,16.645836 64.6737468,16.1109694 C64.1351809,15.5761028 63.865902,14.7738149 63.865902,13.7040816 L63.865902,6.93877551 L62.134806,6.93877551 L62.1117247,5.81122449 L63.865902,5.81122449 L63.865902,2.88392857 L65.4123478,2.88392857 L65.4123478,5.81122449 L69.3361654,5.78954082 L69.3361654,6.93877551 L65.4123478,6.93877551 L65.4123478,13.4655612 C65.4123478,14.8677791 65.966293,15.5688776 67.0741999,15.5688776 C67.6897038,15.5688776 68.3590543,15.3664986 69.0822713,14.9617347 L69.5438969,16.067602 Z M77.299207,7.91454082 C76.4067264,7.91454082 75.6796733,8.20003966 75.1180261,8.77104592 C74.5563788,9.34205217 74.2755593,10.0973592 74.2755593,11.0369898 C74.2755593,11.9766203 74.5525319,12.7391552 75.1064854,13.3246173 C75.6604389,13.9100795 76.3682578,14.2028061 77.2299632,14.2028061 C78.5225213,14.2028061 79.4842317,13.7474535 80.1151232,12.8367347 L82.5617389,14.3979592 C82.0385606,15.2219429 81.3038139,15.857991 80.3574766,16.3061224 C79.4111394,16.7542539 78.3070959,16.9783163 77.0453129,16.9783163 C75.7989176,16.9783163 74.6987209,16.7325705 73.7446899,16.2410714 C72.7906589,15.7495724 72.0482185,15.0557018 71.5173464,14.1594388 C70.9864743,13.2631758 70.7210422,12.2295977 70.7210422,11.0586735 C70.7210422,9.87329339 70.9864743,8.82887357 71.5173464,7.92538265 C72.0482185,7.02189174 72.7945057,6.32079331 73.7562305,5.82206633 C74.7179553,5.32333934 75.8296925,5.07397959 77.0914755,5.07397959 C78.2763205,5.07397959 79.3303551,5.28720025 80.2536109,5.71364796 C81.1768667,6.14009567 81.9154603,6.74361855 82.4694138,7.52423469 L80.0689606,9.1505102 C79.3611312,8.32652649 78.4378892,7.91454082 77.299207,7.91454082 Z M90.0169924,5.6377551 C90.7094342,5.26190288 91.5172709,5.06675177 92.4405268,5.05229592 L92.4405268,8.19642857 C92.317426,8.18197272 92.1327776,8.1747449 91.886576,8.1747449 C90.7940567,8.1747449 89.9285173,8.45301592 89.289932,9.00956633 C88.6513468,9.56611673 88.3320589,10.3069682 88.3320589,11.2321429 L88.3320589,16.8482143 L84.7775418,16.8482143 L84.7775418,5.18239796 L88.3320589,5.18239796 L88.3320589,7.28571429 C88.7629116,6.56292156 89.3245505,6.01360732 90.0169924,5.6377551 Z M104.269683,6.7002551 C105.308346,7.7844442 105.827669,9.29505834 105.827669,11.2321429 C105.827669,11.5790834 105.819976,11.8465127 105.804588,12.0344388 L96.8952138,12.0344388 C97.0952526,12.7716874 97.4799367,13.346299 98.0492778,13.7582908 C98.6186189,14.1702827 99.3033567,14.3762755 100.103512,14.3762755 C100.68824,14.3762755 101.249879,14.2714721 101.788445,14.0618622 C102.327011,13.8522524 102.811713,13.5450701 103.242566,13.1403061 L105.11215,14.9183673 C104.481258,15.5833367 103.715737,16.0928979 102.815562,16.4470663 C101.915388,16.8012348 100.911362,16.9783163 99.8034551,16.9783163 C98.4955094,16.9783163 97.3529974,16.7325705 96.375885,16.2410714 C95.3987726,15.7495724 94.6447917,15.0557018 94.1139196,14.1594388 C93.5830475,13.2631758 93.3176154,12.2295977 93.3176154,11.0586735 C93.3176154,9.87329339 93.5868943,8.82887357 94.1254602,7.92538265 C94.6640261,7.02189174 95.418007,6.32079331 96.3874257,5.82206633 C97.3568443,5.32333934 98.4647346,5.07397959 99.71113,5.07397959 C101.711518,5.07397959 103.23102,5.61606601 104.269683,6.7002551 Z M102.480884,10.0612245 C102.450108,9.2950642 102.188523,8.68069959 101.69612,8.21811224 C101.203717,7.7555249 100.549754,7.52423469 99.7342113,7.52423469 C98.9648314,7.52423469 98.3224089,7.75191099 97.8069244,8.20727041 C97.2914399,8.66262983 96.9644584,9.28060834 96.82597,10.0612245 L102.480884,10.0612245 Z M115.360238,16.8482143 L115.360238,15.4821429 C114.944773,15.9736419 114.406215,16.3494885 113.744548,16.6096939 C113.082882,16.8698993 112.321207,17 111.459502,17 C110.151556,17 109.112909,16.6639064 108.343529,15.9917092 C107.574149,15.3195119 107.189465,14.441332 107.189465,13.3571429 C107.189465,12.2584979 107.601077,11.4020014 108.424313,10.7876276 C109.24755,10.1732537 110.413143,9.85884361 111.921127,9.84438776 L115.337157,9.84438776 L115.337157,9.62755102 C115.337157,9.00594927 115.117887,8.52529932 114.67934,8.18558673 C114.240794,7.84587415 113.598371,7.67602041 112.752053,7.67602041 C111.597983,7.67602041 110.366994,8.0157279 109.059048,8.69515306 L107.951147,6.39668367 C108.935953,5.93409633 109.859195,5.59438884 110.720901,5.37755102 C111.582606,5.1607132 112.528929,5.05229592 113.559898,5.05229592 C115.221759,5.05229592 116.51045,5.42091468 117.426012,6.15816327 C118.341574,6.89541185 118.807042,7.92176213 118.82243,9.2372449 L118.845511,16.8482143 L115.360238,16.8482143 Z M114.367743,14.1160714 C114.906309,13.7835868 115.229443,13.3643733 115.337157,12.8584184 L115.337157,11.817602 L112.544322,11.817602 C111.85188,11.817602 111.34025,11.9224054 111.009417,12.1320153 C110.678583,12.3416252 110.513169,12.6777188 110.513169,13.1403061 C110.513169,13.5884376 110.686277,13.9462146 111.032498,14.213648 C111.378719,14.4810813 111.85188,14.6147959 112.451997,14.6147959 C113.190601,14.6147959 113.829177,14.4485561 114.367743,14.1160714 Z M129.601388,16.1977041 C129.13976,16.4579095 128.62813,16.6566745 128.066483,16.7940051 C127.504835,16.9313357 126.93935,17 126.370008,17 C125.215939,17 124.277309,16.6892038 123.554092,16.067602 C122.830875,15.4460003 122.469272,14.5569786 122.469272,13.4005102 L122.469272,8.00127551 L120.738176,8.00127551 L120.738176,5.70280612 L122.469272,5.70280612 L122.469272,2.49362245 L126.000708,2.49362245 L126.000708,5.70280612 L129.370575,5.70280612 L129.370575,8.02295918 L126.000708,8.02295918 L126.000708,12.8367347 C126.000708,13.7329977 126.377698,14.1811224 127.131691,14.1811224 C127.654869,14.1811224 128.231895,14.0365661 128.862787,13.747449 L129.601388,16.1977041 Z M131.747947,5.18239796 L135.302464,5.18239796 L135.302464,16.8482143 L131.747947,16.8482143 L131.747947,5.18239796 Z M134.898541,0.520408163 C135.26015,0.867348673 135.440952,1.31547344 135.440952,1.86479592 C135.440952,2.41411839 135.26015,2.86224316 134.898541,3.20918367 C134.536933,3.55612418 134.071465,3.72959184 133.502124,3.72959184 C132.948171,3.72959184 132.490396,3.55251027 132.128788,3.19834184 C131.767179,2.8441734 131.586378,2.39966254 131.586378,1.86479592 C131.586378,1.31547344 131.767179,0.867348673 132.128788,0.520408163 C132.490396,0.173467653 132.948171,0 133.502124,0 C134.071465,0 134.536933,0.173467653 134.898541,0.520408163 Z M136.941235,5.20408163 L140.611158,5.18239796 L143.542481,13.682398 L146.450722,5.18239796 L149.982158,5.18239796 L145.296658,16.8482143 L141.649816,16.8482143 L136.941235,5.20408163 Z M161.442014,6.7002551 C162.480676,7.7844442 163,9.29505834 163,11.2321429 C163,11.5790834 162.992306,11.8465127 162.976919,12.0344388 L154.067545,12.0344388 C154.267583,12.7716874 154.652268,13.346299 155.221609,13.7582908 C155.79095,14.1702827 156.475687,14.3762755 157.275843,14.3762755 C157.860571,14.3762755 158.42221,14.2714721 158.960776,14.0618622 C159.499342,13.8522524 159.984044,13.5450701 160.414897,13.1403061 L162.28448,14.9183673 C161.653589,15.5833367 160.888067,16.0928979 159.987893,16.4470663 C159.087719,16.8012348 158.083693,16.9783163 156.975786,16.9783163 C155.66784,16.9783163 154.525328,16.7325705 153.548216,16.2410714 C152.571103,15.7495724 151.817122,15.0557018 151.28625,14.1594388 C150.755378,13.2631758 150.489946,12.2295977 150.489946,11.0586735 C150.489946,9.87329339 150.759225,8.82887357 151.297791,7.92538265 C151.836357,7.02189174 152.590338,6.32079331 153.559756,5.82206633 C154.529175,5.32333934 155.637065,5.07397959 156.883461,5.07397959 C158.883848,5.07397959 160.403351,5.61606601 161.442014,6.7002551 Z M159.653214,10.0612245 C159.622439,9.2950642 159.360854,8.68069959 158.868451,8.21811224 C158.376048,7.7555249 157.722085,7.52423469 156.906542,7.52423469 C156.137162,7.52423469 155.49474,7.75191099 154.979255,8.20727041 C154.463771,8.66262983 154.136789,9.28060834 153.998301,10.0612245 L159.653214,10.0612245 Z" id="hallettcreative-copy" fill="#FFFFFF"></path>
        </g>
    </g>
</svg>