<?xml version="1.0" encoding="UTF-8"?>
<svg width="244px" height="68px" viewBox="0 0 244 68" version="1.1" xmlns="http://www.w3.org/2000/svg" xmlns:xlink="http://www.w3.org/1999/xlink">
    <!-- Generator: Sketch 43.2 (39069) - http://www.bohemiancoding.com/sketch -->
    <title>Logo</title>
    <desc>Created with Sketch.</desc>
    <defs></defs>
    <g id="Symbols" stroke="none" stroke-width="1" fill="none" fill-rule="evenodd">
        <g id="Top" transform="translate(-374.000000, -123.000000)">
            <g id="Logo">
                <g transform="translate(374.000000, 123.000000)">
                    <path d="M19.7888523,42.807603 C17.7872112,43.9299608 15.4216709,44.4911313 12.6921604,44.4911313 C8.84051782,44.4911313 5.76228269,43.459791 3.4573627,41.3970793 C1.15244271,39.3343677 -2.84217094e-14,36.6195158 -2.84217094e-14,33.2524424 C-2.84217094e-14,29.673031 1.17518829,26.7761779 3.52560012,24.5617963 C5.87601195,22.3474147 9.09830242,21.2402405 13.1925682,21.2402405 C15.6794556,21.2402405 17.8630312,21.7710774 19.7433607,22.8327672 C21.8359854,24.015793 23.3220299,26.0936405 24.2015389,29.066372 L20.1982768,30.8864026 C19.5917189,28.702355 18.7501325,27.1932614 17.6734922,26.3590765 C16.596852,25.5248916 15.0728981,25.1078055 13.101585,25.1078055 C10.3114187,25.1078055 8.1657523,25.8509772 6.66452152,27.337343 C5.16329073,28.8237087 4.4126866,30.7953888 4.4126866,33.2524424 C4.4126866,35.527492 5.11021772,37.3020041 6.50530087,38.5760319 C7.96103981,39.9410617 10.008142,40.6235663 12.6466688,40.6235663 C14.4966704,40.6235663 16.0964428,40.2368137 17.4460341,39.4632968 C18.7956255,38.6897799 19.7433579,36.9986851 20.28926,34.3899615 L24.4744886,36.0279891 C23.6253075,39.2433925 22.0634444,41.5032413 19.7888523,42.807603 Z M43.4598308,43.9906229 L43.4598308,29.2028743 C43.4598308,25.9874709 41.4582198,24.3797932 37.4549377,24.3797932 C35.1803456,24.3797932 33.4137722,25.0016308 32.1551646,26.2453246 C30.896557,27.4890184 30.2672626,29.1270295 30.2672626,31.1594072 L30.2672626,43.9906229 L25.9000676,43.9906229 L25.9000676,13.1411043 L30.2672626,13.1411043 L30.2672626,22.4232603 C32.1779199,21.0885646 34.558624,20.4212267 37.4094461,20.4212267 C40.3209239,20.4212267 42.7167917,21.0885646 44.5971211,22.4232603 C46.7504017,23.9096261 47.8270258,26.0329739 47.8270258,28.7933674 L47.8270258,43.9906229 L43.4598308,43.9906229 Z M62.6613895,44.4911313 C58.7490911,44.4911313 55.6405285,43.4142907 53.3356085,41.260577 C51.0306885,39.1068634 49.8782458,36.3161777 49.8782458,32.8884363 C49.8782458,29.4606948 51.0458522,26.6624258 53.3811001,24.4935451 C55.716348,22.3246645 58.8400743,21.2402405 62.7523727,21.2402405 C66.6646711,21.2402405 69.7732337,22.3246645 72.0781537,24.4935451 C74.3830737,26.6624258 75.5355164,29.4606948 75.5355164,32.8884363 C75.5355164,36.3161777 74.3679099,39.1068634 72.0326621,41.260577 C69.6974142,43.4142907 66.5736879,44.4911313 62.6613895,44.4911313 Z M62.7068811,25.1078055 C60.0380264,25.1078055 57.9681786,25.8206437 56.4972757,27.2463414 C55.0263728,28.6720392 54.2909324,30.5527187 54.2909324,32.8884363 C54.2909324,35.1938199 55.0339547,37.0593326 56.5200215,38.4850304 C58.0060884,39.9107281 60.0683543,40.6235663 62.7068811,40.6235663 C65.3454079,40.6235663 67.4152557,39.9107281 68.9164865,38.4850304 C70.4177173,37.0593326 71.1683214,35.1938199 71.1683214,32.8884363 C71.1683214,30.5223847 70.432881,28.6341218 68.9619781,27.223591 C67.4910752,25.8130603 65.4060637,25.1078055 62.7068811,25.1078055 Z M101.238279,43.9906229 L97.7809158,43.9906229 L92.8678215,30.1583904 L88.31866,43.9906229 L84.906789,43.9906229 L73.6703602,21.7862496 L78.5834545,21.7862496 L86.5444871,37.8935204 L91.3211066,21.6042466 L94.4145364,21.6952481 L99.418614,37.8935204 L106.742764,21.7862496 L111.519383,21.7862496 L101.238279,43.9906229 Z M207.21567,41.7155847 C205.001733,44.0816363 201.923498,45.2646443 197.980872,45.2646443 C194.796443,45.2646443 192.127628,44.4001385 189.974348,42.6711007 L189.974348,51.6347514 L185.607153,51.6347514 L185.607153,21.7407489 L189.974348,21.7407489 L189.974348,23.7882833 C192.127628,22.0895796 194.781279,21.2402405 197.93538,21.2402405 C201.847679,21.2402405 204.925914,22.3777482 207.170178,24.6527978 C209.262803,26.8368455 210.309099,29.6730314 210.309099,33.1614409 C210.309099,36.7105183 209.277966,39.561871 207.21567,41.7155847 Z M198.20833,25.198807 C195.660787,25.198807 193.651594,25.926812 192.180691,27.3828437 C190.709788,28.8388755 189.974348,30.7498885 189.974348,33.1159401 C189.974348,38.5457252 192.703817,41.260577 198.162838,41.260577 C200.680054,41.260577 202.636173,40.5022385 204.031257,38.9855388 C205.335356,37.559841 205.987396,35.6336612 205.987396,33.2069416 C205.987396,30.84089 205.312611,28.9147102 203.963019,27.4283445 C202.613428,25.9419787 200.695217,25.198807 198.20833,25.198807 Z M232.039277,44.0361237 L232.039277,41.9430885 C229.916325,43.6417922 227.171692,44.4911313 223.805295,44.4911313 C219.983981,44.4911313 216.951237,43.3536236 214.706972,41.078574 C212.614348,38.9551943 211.568051,36.2403425 211.568051,32.933937 C211.568051,29.5365296 212.629511,26.7761775 214.752464,24.6527978 C217.027056,22.3777482 220.105291,21.2402405 223.987262,21.2402405 C227.202019,21.2402405 229.885997,22.059246 232.039277,23.6972818 L232.039277,21.331242 L236.406472,21.331242 L236.406472,44.0361237 L232.039277,44.0361237 Z M223.759804,25.1078055 C221.272916,25.1078055 219.316796,25.866144 217.891385,27.3828437 C216.587286,28.8085415 215.935246,30.6588874 215.935246,32.933937 C215.935246,35.2089867 216.587286,37.0289991 217.891385,38.3940288 C219.286469,39.8803946 221.242588,40.6235663 223.759804,40.6235663 C226.277019,40.6235663 228.286212,39.8955614 229.787443,38.4395296 C231.288673,36.9834978 232.039277,35.1483187 232.039277,32.933937 C232.039277,30.5072174 231.334165,28.5962044 229.923917,27.2008407 C228.51367,25.8054769 226.458986,25.1078055 223.759804,25.1078055 Z M239.632805,43.9906229 L239.632805,13.1411043 L244,13.1411043 L244,43.9906229 L239.632805,43.9906229 Z" id="chow-pal-copy-28" fill="#FFFFFF"></path>
                    <ellipse id="Path" fill="#FFFFFF" cx="147.338462" cy="34.1042945" rx="28.0495726" ry="28.0552147"></ellipse>
                    <path d="M147.981446,34.2425357 C147.891251,33.1599786 148.217507,25.6872113 148.548238,20.5047182 C148.68893,18.3000979 149.975652,16.0596737 151.846845,14.2623727 C153.664835,12.516174 155.547772,11.5654181 156.310057,12.6546157 C156.607126,13.0790865 156.680357,14.9490283 156.72031,19.6872573 C156.749649,23.1667423 156.738161,27.8431441 156.693361,33.4219232 C156.667833,36.6007966 156.632247,39.9748086 156.589161,43.4428754 C156.55695,46.0356564 156.522437,48.5308867 156.487925,50.8376563 C156.475845,51.6450511 156.464628,52.3712305 156.454561,53.0048294 C156.451037,53.2266111 156.447909,53.4209853 156.445212,53.5865312 C156.443593,53.6858916 156.442478,53.7535398 156.441901,53.7881818 L156.430894,54.4486951 L155.772704,54.5035554 C155.74129,54.5061737 155.689244,54.5096003 155.618783,54.5128669 C154.914094,54.5455357 154.103106,54.4984623 153.31319,54.3043376 C151.589887,53.8808291 150.480041,52.8464846 150.53452,51.1028018 C150.577219,50.5784685 150.693696,48.1902074 150.866151,44.3954345 C150.873299,44.2381536 150.880535,44.078629 150.887861,43.9168225 C150.95701,42.3896597 151.106799,39.0235398 151.169254,37.6200915 C149.291159,37.1477276 148.110883,35.7960999 147.981446,34.2425357 Z M155.028259,50.815809 C155.062754,48.5102152 155.097249,46.016205 155.129445,43.4247333 C155.172505,39.9586754 155.20807,36.5867552 155.233579,33.4101956 C155.278321,27.8387534 155.289791,23.1694332 155.260533,19.6995712 C155.243979,17.7362918 155.214491,16.1833628 155.171289,15.0802005 C155.148789,14.5056481 155.122673,14.0567298 155.093346,13.7417208 C155.005193,13.7690859 154.905225,13.8132865 154.795943,13.8684663 C154.228506,14.1549839 153.527929,14.6720427 152.857997,15.3155196 C151.22697,16.8821381 150.119118,18.8111167 150.005102,20.5977282 C149.68165,25.6661656 149.355047,33.1468657 149.436232,34.1212791 C149.522592,35.1578106 150.434615,36.0907487 152.020954,36.2977041 L152.686171,36.384489 L152.655709,37.0547836 C152.650337,37.1729955 152.433733,42.0496042 152.346196,43.982881 C152.338866,44.1447672 152.331626,44.3043725 152.324475,44.4617353 C152.152177,48.2530459 152.037436,50.6090565 151.993173,51.1653168 C151.971518,52.084957 152.540988,52.6110146 153.661517,52.8863889 C154.098541,52.9937893 154.559772,53.045791 154.99369,53.0587387 C155.004976,52.3484705 155.016187,51.6227414 155.028259,50.815809 Z" id="Path-5-Copy-2" fill="#90574C" fill-rule="nonzero"></path>
                    <g id="Group-2-Copy-2" transform="translate(134.929915, 12.306748)" fill-rule="nonzero" fill="#90574C">
                        <path d="M9.37479672,17.268064 C9.90418068,16.6094296 10.2293265,15.7868364 10.2955588,15.0581353 C10.3403787,14.5650168 10.2365265,12.0156387 10.0234754,7.84457912 C10.0063189,7.50869359 9.98859239,7.16536791 9.97034565,6.81538947 C9.89694962,5.40762955 9.81831773,3.9521845 9.73968645,2.53191038 C9.71216576,2.03481916 9.68661029,1.57761958 9.66367481,1.17067392 C9.65564638,1.02822493 9.64851855,0.902226517 9.64237319,0.793974115 C9.63868431,0.728993266 9.63614382,0.684388267 9.634827,0.661339198 C9.61273346,0.274624519 9.28139197,-0.0209557152 8.89475506,0.00114226645 C8.50811815,0.0232402481 8.21259736,0.354648389 8.2346909,0.741363068 C8.23599383,0.764168857 8.2385291,0.808682197 8.24220827,0.87349179 C8.24834299,0.981556792 8.25546006,1.10736514 8.2634776,1.24962086 C8.28638776,1.65611727 8.31191742,2.11285511 8.3394115,2.60946564 C8.41796525,4.02833939 8.49651841,5.48232729 8.56982842,6.88843726 C8.58805002,7.23793348 8.60575113,7.58076723 8.62288185,7.916148 C8.82554505,11.8838359 8.93396451,14.5453318 8.89889803,14.9311406 C8.79460721,16.0785704 7.89410835,17.1989285 6.50531205,17.3252081 L5.83111417,17.3865111 L5.86866616,18.0625829 C6.25216116,24.9668814 6.88648316,38.1567544 6.81826026,38.770884 C6.67386877,40.0706688 6.28066072,40.7027374 5.14921924,40.7027374 C4.7619516,40.7027374 4.44800915,41.016743 4.44800915,41.4040885 C4.44800915,41.7914341 4.7619516,42.1054397 5.14921924,42.1054397 C6.29197021,42.1054397 7.12790489,41.6351318 7.63735615,40.8162062 C7.98048415,40.2646395 8.12783913,39.6843126 8.21210286,38.9257865 C8.29239903,38.2029756 7.70867516,25.9985852 7.30331048,18.6077998 C8.14800539,18.3922518 8.84721549,17.9244556 9.37479672,17.268064 Z M2.09066666,38.925646 C2.17476164,39.6840463 2.32181109,40.2642359 2.66425441,40.8157151 C3.17289197,41.6348376 4.00781296,42.1054397 5.14921924,42.1054397 C5.53648688,42.1054397 5.85042933,41.7914341 5.85042933,41.4040885 C5.85042933,41.016743 5.53648688,40.7027374 5.14921924,40.7027374 C4.0211137,40.7027374 3.62865611,40.070714 3.48454046,38.7710245 C3.41642991,38.1567778 4.04957367,24.9671731 4.43238426,18.0625116 L4.46985743,17.3866171 L3.7958503,17.3252186 C2.41055231,17.1990253 1.51183447,16.0788251 1.40772264,14.9312563 C1.37271172,14.5453499 1.48092787,11.8839554 1.68322819,7.91608243 C1.70032746,7.58070119 1.71799608,7.237867 1.73618422,6.88837035 C1.80935963,5.48225887 1.88776854,4.02826964 1.96617805,2.60939461 C1.99362164,2.11278365 2.01910443,1.65604539 2.04197252,1.24954857 C2.04997534,1.10729267 2.05707934,0.981484153 2.0632028,0.873418981 C2.06687522,0.808609232 2.06940584,0.764095809 2.07070639,0.741289798 C2.09275947,0.35457281 1.79720401,0.0231955995 1.41056479,0.00113808346 C1.02392557,-0.0209194325 0.692615005,0.274695478 0.670561925,0.661412467 C0.669247539,0.684461315 0.666711717,0.729066231 0.663029617,0.794046925 C0.656895557,0.902299156 0.649780839,1.02829739 0.641767165,1.17074621 C0.618873846,1.57769146 0.593365346,2.03489062 0.565895241,2.53198141 C0.487408485,3.95225424 0.408921133,5.40769797 0.335660022,6.81545639 C0.317446827,7.16543439 0.299752904,7.50875962 0.282627946,7.84464469 C0.0699776805,12.0155192 -0.0336878441,14.5649987 0.0110408991,15.0580196 C0.0771338353,15.7865266 0.401626123,16.6089772 0.930006567,17.2675731 C1.45659945,17.9239409 2.15456658,18.3918368 2.99781238,18.6075577 C2.59320959,25.9979949 2.01052961,38.2029397 2.09066666,38.925646 Z" id="Combined-Shape"></path>
                        <path d="M3.31234724,0.701351133 L3.31234724,11.3135536 C3.31234724,11.7008991 3.62628969,12.0149047 4.01355733,12.0149047 C4.40082497,12.0149047 4.71476742,11.7008991 4.71476742,11.3135536 L4.71476742,0.701351133 C4.71476742,0.314005598 4.40082497,0 4.01355733,0 C3.62628969,0 3.31234724,0.314005598 3.31234724,0.701351133 Z" id="Path-6"></path>
                        <path d="M5.58367107,0.701351133 L5.58367107,11.3135536 C5.58367107,11.7008991 5.89761352,12.0149047 6.28488115,12.0149047 C6.67214879,12.0149047 6.98609124,11.7008991 6.98609124,11.3135536 L6.98609124,0.701351133 C6.98609124,0.314005598 6.67214879,0 6.28488115,0 C5.89761352,0 5.58367107,0.314005598 5.58367107,0.701351133 Z" id="Path-6-Copy"></path>
                    </g>
                    <path d="M147.234188,67.8957055 C128.517872,67.8957055 113.345299,52.7200812 113.345299,34 C113.345299,15.2799188 128.517872,0.104294479 147.234188,0.104294479 C165.950505,0.104294479 181.123077,15.2799188 181.123077,34 C181.123077,52.7200812 165.950505,67.8957055 147.234188,67.8957055 Z M147.234188,64.7668712 C164.222845,64.7668712 177.994872,50.9920737 177.994872,34 C177.994872,17.0079263 164.222845,3.23312883 147.234188,3.23312883 C130.245531,3.23312883 116.473504,17.0079263 116.473504,34 C116.473504,50.9920737 130.245531,64.7668712 147.234188,64.7668712 Z" id="Oval-3-Copy" fill="#FFFFFF" fill-rule="nonzero"></path>
                </g>
            </g>
        </g>
    </g>
</svg>