<?xml version="1.0" encoding="UTF-8"?>
<svg width="188px" height="151px" viewBox="0 0 188 151" version="1.1" xmlns="http://www.w3.org/2000/svg" xmlns:xlink="http://www.w3.org/1999/xlink">
    <!-- Generator: Sketch 43.2 (39069) - http://www.bohemiancoding.com/sketch -->
    <title>1</title>
    <desc>Created with Sketch.</desc>
    <defs></defs>
    <g id="Final-mockups" stroke="none" stroke-width="1" fill="none" fill-rule="evenodd">
        <g id="Artboard-2" transform="translate(-77.000000, -773.000000)">
            <g id="How-It-WOrks" transform="translate(-3.000000, 615.000000)">
                <g id="1" transform="translate(83.000000, 163.000000)">
                    <ellipse id="Oval-4-Copy" stroke="#505050" stroke-width="10" cx="110.186916" cy="70.5" rx="69.8130841" ry="70.5"></ellipse>
                    <ellipse id="Oval-4" cx="110.186916" cy="70.5" rx="69.8130841" ry="70.5"></ellipse>
                    <g id="Phone" transform="translate(84.112150, 20.385542)">
                        <rect id="Rectangle-4" fill="#505050" x="0" y="0" width="52.1495327" height="99.3795181" rx="9"></rect>
                        <rect id="Rectangle-6" fill="#FFFFFF" x="10.9345794" y="4.24698795" width="31.1214953" height="3.39759036" rx="1.69879518"></rect>
                        <rect id="Rectangle-6-Copy" fill="#FFFFFF" x="4.20560748" y="13.5903614" width="43.7383178" height="67.1024096" rx="2"></rect>
                        <ellipse id="Oval-3" fill="#FFFFFF" cx="26.4953271" cy="90.4608434" rx="4.62616822" ry="4.67168675"></ellipse>
                    </g>
                    <g id="Group-6" transform="translate(0.000000, 43.319277)">
                        <ellipse id="Oval-2" stroke="#F3883D" stroke-width="5" fill="#FFFFFF" cx="24.3925234" cy="24.6325301" rx="24.3925234" ry="24.6325301"></ellipse>
                        <text id="1" font-family="WalkwayBlack, Walkway Black" font-size="36" font-weight="700" letter-spacing="0.719999969" fill="#505050">
                            <tspan x="15.296814" y="36.2256973">1</tspan>
                        </text>
                    </g>
                    <g id="Group-7" transform="translate(92.523364, 47.566265)">
                        <ellipse id="Path" fill="#505050" cx="18.9832865" cy="19.1700698" rx="15.6162204" ry="15.769874"></ellipse>
                        <path d="M19.3412593,19.2477754 C19.2910444,18.6392686 19.4726831,14.4388161 19.6568131,11.5257297 C19.7351415,10.2865097 20.4515065,9.0271642 21.493268,8.01689888 C22.5054093,7.03535828 23.553709,6.50093709 23.9781008,7.11317655 C24.1434904,7.35177211 24.1842607,8.40286894 24.206504,11.0662339 C24.2228381,13.022057 24.2164424,15.6506688 24.1915003,18.786508 C24.177288,20.5733571 24.1574758,22.4698938 24.1334884,24.4192988 C24.1155551,25.8767044 24.096341,27.2792768 24.0771266,28.5759151 C24.0704014,29.0297528 24.0641564,29.4379392 24.0585517,29.794086 C24.0565899,29.9187498 24.0548481,30.0280078 24.0533465,30.1210614 C24.0524453,30.176912 24.0518245,30.2149371 24.0515031,30.2344094 L24.0453755,30.6056849 L23.6789367,30.6365219 C23.6614479,30.6379936 23.6324719,30.6399197 23.5932436,30.6417559 C23.2009174,30.6601191 22.7494107,30.633659 22.3096361,30.5245413 C21.3502103,30.2864866 20.7323183,29.7050801 20.7626488,28.7249537 C20.7864211,28.4302253 20.8512681,27.0877805 20.9472801,24.9547335 C20.9512595,24.8663257 20.9552881,24.7766567 20.959367,24.6857051 C20.9978644,23.8272848 21.0812575,21.9351843 21.1160287,21.1463041 C20.0704245,20.8807877 19.4133219,20.121036 19.3412593,19.2477754 Z M23.2644775,28.5636346 C23.2836821,27.2676573 23.3028868,25.8657708 23.320811,24.4091011 C23.3447845,22.4608253 23.3645844,20.5654643 23.3787865,18.779916 C23.4036957,15.6482008 23.4100818,13.0235696 23.3937928,11.0731555 C23.3845763,9.96959349 23.3681597,9.09669001 23.3441074,8.47660098 C23.3315805,8.15364433 23.3170408,7.90130675 23.3007138,7.72423974 C23.2516356,7.73962172 23.1959796,7.76446694 23.1351386,7.79548356 C22.8192254,7.95653552 22.4291889,8.24717498 22.0562132,8.60887421 C21.1481611,9.48947258 20.5313795,10.573754 20.4679026,11.5780108 C20.2878249,14.4269863 20.1059934,18.6318978 20.151192,19.1796169 C20.1992719,19.7622527 20.7070282,20.2866584 21.590201,20.4029884 L21.9605516,20.4517703 L21.9435924,20.8285438 C21.9406015,20.8949909 21.8200098,23.6361391 21.7712749,24.7228367 C21.7671939,24.8138331 21.7631634,24.9035474 21.7591819,24.9920013 C21.6632575,27.1231021 21.5993768,28.4474188 21.5747343,28.7600935 C21.562678,29.2770245 21.8797226,29.5727221 22.503562,29.7275104 C22.7468692,29.7878803 23.0036534,29.8171105 23.2452312,29.8243884 C23.251515,29.4251457 23.2577562,29.0172124 23.2644775,28.5636346 Z" id="Path-5-Copy-2" fill="#FFFFFF" fill-rule="nonzero"></path>
                        <g id="Group-2-Copy-2" transform="translate(12.074996, 6.917640)" fill-rule="nonzero" fill="#FFFFFF">
                            <path d="M5.21929135,9.70640203 C5.51401871,9.33618272 5.69503927,8.873802 5.73191316,8.46419815 C5.75686606,8.18701555 5.69904776,6.75400671 5.58043443,4.40944849 C5.57088278,4.22064678 5.56101379,4.02766295 5.55085516,3.8309396 C5.50999291,3.03963585 5.46621568,2.22152823 5.42243877,1.42319024 C5.407117,1.14377459 5.39288934,0.88678209 5.38012032,0.658037389 C5.3756506,0.577966615 5.37168228,0.50714274 5.36826093,0.446293919 C5.36620719,0.409768096 5.36479281,0.384695566 5.36405969,0.371739653 C5.35175941,0.154366812 5.16728951,-0.0117792357 4.95203464,0.000642069508 C4.73677977,0.0130633747 4.57225256,0.199348337 4.58455284,0.416721179 C4.58527823,0.429540344 4.58668971,0.454561352 4.58873803,0.490990911 C4.59215346,0.551734394 4.59611579,0.622451434 4.60057945,0.702413568 C4.61333437,0.930905748 4.62754766,1.1876387 4.64285462,1.46678415 C4.68658836,2.26433499 4.73032177,3.08162355 4.77113613,3.87199986 C4.78128075,4.06845216 4.79113561,4.26115947 4.8006729,4.44967745 C4.9135029,6.67992016 4.97386397,8.17595061 4.95434119,8.39281426 C4.89627868,9.03778609 4.39493811,9.66754086 3.62174455,9.73852279 L3.24639399,9.77298132 L3.26730055,10.1530022 C3.48080621,14.0339177 3.83395641,21.447963 3.79597423,21.7931661 C3.71558622,22.5237769 3.49667296,22.8790635 2.86675821,22.8790635 C2.65115218,22.8790635 2.47636897,23.0555665 2.47636897,23.2732939 C2.47636897,23.4910214 2.65115218,23.6675243 2.86675821,23.6675243 C3.50296936,23.6675243 3.96836469,23.4031637 4.25199479,22.9428445 C4.44302667,22.6328081 4.52506457,22.3066055 4.57197726,21.880237 C4.61668106,21.473944 4.29170069,14.6138397 4.06601939,10.4594693 C4.53629186,10.3383095 4.92556763,10.0753606 5.21929135,9.70640203 Z M1.1639504,21.880158 C1.21076915,22.3064559 1.29263694,22.6325812 1.48328763,22.9425684 C1.76646471,23.4029983 2.23129569,23.6675243 2.86675821,23.6675243 C3.08236423,23.6675243 3.25714744,23.4910214 3.25714744,23.2732939 C3.25714744,23.0555665 3.08236423,22.8790635 2.86675821,22.8790635 C2.23870069,22.8790635 2.02020524,22.5238023 1.9399708,21.7932451 C1.90205117,21.4479762 2.2545454,14.0340816 2.46767002,10.1529621 L2.4885327,9.7730409 L2.11328834,9.73852872 C1.34204241,9.66759527 0.841693403,9.03792925 0.783730548,8.3928793 C0.764238696,8.17596076 0.824486575,6.67998733 0.937114541,4.44964059 C0.946634329,4.26112235 0.956471092,4.06841479 0.966597096,3.87196225 C1.00733651,3.08158509 1.05098962,2.26429579 1.09464305,1.46674423 C1.1099219,1.18759854 1.12410909,0.930865343 1.1368406,0.702372934 C1.14129606,0.622410701 1.14525112,0.551693564 1.14866027,0.490949985 C1.15070484,0.454520338 1.15211373,0.429499283 1.15283779,0.416679994 C1.16511554,0.199305854 1.00056904,0.0130382777 0.785312879,0.000639718247 C0.570056722,-0.0117588412 0.385604041,0.154406698 0.373326287,0.371780838 C0.37259452,0.384736627 0.371182736,0.40980911 0.369132777,0.446334846 C0.365717722,0.50718357 0.361756698,0.578007348 0.357295194,0.658078023 C0.344549648,0.886822494 0.330348135,1.14381476 0.315054526,1.42323016 C0.271358085,2.22156743 0.227661313,3.03967431 0.18687418,3.83097721 C0.17673423,4.02770032 0.166883377,4.2206839 0.157349289,4.40948534 C0.0389591276,6.75393954 -0.0187552518,8.1870054 0.00614687133,8.46413311 C0.0429432201,8.87362783 0.223599915,9.33592847 0.517768584,9.70612609 C0.810942056,10.0750713 1.19952582,10.3380762 1.66899152,10.4593332 C1.44373439,14.6135079 1.11933518,21.4739238 1.1639504,21.880158 Z" id="Combined-Shape"></path>
                            <path d="M1.84410455,0.394230416 L1.84410455,6.35936369 C1.84410455,6.57709114 2.01888777,6.75359411 2.23449379,6.75359411 C2.45009981,6.75359411 2.62488303,6.57709114 2.62488303,6.35936369 L2.62488303,0.394230416 C2.62488303,0.176502969 2.45009981,0 2.23449379,0 C2.01888777,0 1.84410455,0.176502969 1.84410455,0.394230416 Z" id="Path-6"></path>
                            <path d="M3.10863339,0.394230416 L3.10863339,6.35936369 C3.10863339,6.57709114 3.2834166,6.75359411 3.49902262,6.75359411 C3.71462865,6.75359411 3.88941186,6.57709114 3.88941186,6.35936369 L3.88941186,0.394230416 C3.88941186,0.176502969 3.71462865,0 3.49902262,0 C3.2834166,0 3.10863339,0.176502969 3.10863339,0.394230416 Z" id="Path-6-Copy"></path>
                        </g>
                        <path d="M18.9252336,38.1642675 C8.50517743,38.1642675 0.0580528639,29.6340287 0.0580528639,19.1114458 C0.0580528639,8.58886291 8.50517743,0.0586240668 18.9252336,0.0586240668 C29.3452899,0.0586240668 37.7924144,8.58886291 37.7924144,19.1114458 C37.7924144,29.6340287 29.3452899,38.1642675 18.9252336,38.1642675 Z M18.9252336,36.4055455 C28.3834385,36.4055455 36.0508285,28.6627133 36.0508285,19.1114458 C36.0508285,9.56017825 28.3834385,1.81734607 18.9252336,1.81734607 C9.46702877,1.81734607 1.79963878,9.56017825 1.79963878,19.1114458 C1.79963878,28.6627133 9.46702877,36.4055455 18.9252336,36.4055455 Z" id="Oval-3-Copy" fill="#505050" fill-rule="nonzero"></path>
                    </g>
                </g>
            </g>
        </g>
    </g>
</svg>