<?xml version="1.0" encoding="UTF-8"?>
<svg width="188px" height="149px" viewBox="0 0 188 149" version="1.1" xmlns="http://www.w3.org/2000/svg" xmlns:xlink="http://www.w3.org/1999/xlink">
    <!-- Generator: Sketch 43.2 (39069) - http://www.bohemiancoding.com/sketch -->
    <title>Group 8</title>
    <desc>Created with Sketch.</desc>
    <defs></defs>
    <g id="Final-mockups" stroke="none" stroke-width="1" fill="none" fill-rule="evenodd">
        <g id="Artboard-2" transform="translate(-395.000000, -773.000000)">
            <g id="How-It-WOrks" transform="translate(-3.000000, 615.000000)">
                <g id="Group-8" transform="translate(401.000000, 163.000000)">
                    <circle id="Oval-4-Copy" stroke="#505050" stroke-width="10" cx="110.511628" cy="69.4883721" r="69.4883721"></circle>
                    <g id="Free-Shipping" transform="translate(50.232558, 36.837209)">
                        <g id="Shipping-Truck">
                            <path d="M36.1625351,3.00993318 C36.1625351,1.34759299 37.5100632,0 39.1592499,0 L67.0097903,0 C76.7539804,0 84.6532073,7.90625964 84.6532073,17.6518674 C84.6532073,17.6518674 84.6532073,19.8631323 84.6532073,35.3032258 C70.2703808,35.3032258 39.1539954,35.3032258 39.1539954,35.3032258 C37.5018575,35.3032258 36.1625351,33.9624065 36.1625351,32.2932926 L36.1625351,3.00993318 Z" id="Rectangle-5" fill="#505050"></path>
                            <path d="M36.1625351,42.4870218 C36.1625351,40.3332355 37.9101794,38.5872468 40.0548136,38.5872468 C40.0548136,38.5872468 71.5031945,38.5872468 84.6532073,38.5872468 C84.6532073,44.3342836 84.6532073,41.8712678 84.6532073,46.3867967 C72.3250703,46.3867967 40.0645798,46.3867967 40.0645798,46.3867967 C37.9095401,46.3867967 36.1625351,44.6364255 36.1625351,42.4870218 L36.1625351,42.4870218 Z" id="Rectangle-22" fill="#505050"></path>
                            <path d="M87.5297726,12.3150788 C96.5704063,12.3150788 93.7380248,12.3150788 93.7380248,12.3150788 C100.522265,12.3150788 107.324265,17.6487984 108.936957,24.2538342 L111.325757,34.0375386 C112.935655,40.6311312 108.733375,45.9762941 101.954083,45.9762941 C101.954083,45.9762941 99.0851211,45.9762941 87.5297726,45.9762941 C87.5297726,36.5347337 87.5297726,21.7566392 87.5297726,12.3150788 Z" id="Rectangle-23" fill="#505050"></path>
                            <path d="M91.2282136,15.6671257 C96.8358452,15.6671257 95.386145,15.6671257 95.386145,15.6671257 C99.4245749,15.6671257 103.773262,18.7544349 105.105474,22.5808163 L107.140198,28.4249526 C107.502507,29.4655763 106.899613,30.3091684 105.798574,30.3091684 C105.798574,30.3091684 98.3956467,30.3091684 91.2282136,30.3091684 C91.2282136,26.202254 91.2282136,19.7740401 91.2282136,15.6671257 Z" id="Rectangle-23" fill="#FFFFFF"></path>
                            <path d="M52.1891132,62.8069017 C46.5152448,62.8069017 41.9156657,58.2121946 41.9156657,52.5443361 C41.9156657,46.8764776 46.5152448,42.2817704 52.1891132,42.2817704 C57.8629816,42.2817704 62.4625607,46.8764776 62.4625607,52.5443361 C62.4625607,58.2121946 57.8629816,62.8069017 52.1891132,62.8069017 Z M52.1891132,57.059865 C54.6856153,57.059865 56.7094301,55.0381938 56.7094301,52.5443361 C56.7094301,50.0504783 54.6856153,48.0288072 52.1891132,48.0288072 C49.6926111,48.0288072 47.6687963,50.0504783 47.6687963,52.5443361 C47.6687963,55.0381938 49.6926111,57.059865 52.1891132,57.059865 Z" id="Oval-6" fill="#505050" fill-rule="nonzero"></path>
                            <path d="M52.1891132,63.4226557 C46.1748127,63.4226557 41.2992589,58.5522661 41.2992589,52.5443361 C41.2992589,46.5364061 46.1748127,41.6660165 52.1891132,41.6660165 C58.2034137,41.6660165 63.0789675,46.5364061 63.0789675,52.5443361 C63.0789675,58.5522661 58.2034137,63.4226557 52.1891132,63.4226557 Z M52.1891132,61.3701425 C57.06864,61.3701425 61.024278,57.4186944 61.024278,52.5443361 C61.024278,47.6699778 57.06864,43.7185296 52.1891132,43.7185296 C47.3095864,43.7185296 43.3539484,47.6699778 43.3539484,52.5443361 C43.3539484,57.4186944 47.3095864,61.3701425 52.1891132,61.3701425 Z" id="Oval-6" fill="#505050" fill-rule="nonzero"></path>
                            <path d="M97.3922821,62.8069017 C91.7184138,62.8069017 87.1188347,58.2121946 87.1188347,52.5443361 C87.1188347,46.8764776 91.7184138,42.2817704 97.3922821,42.2817704 C103.066151,42.2817704 107.66573,46.8764776 107.66573,52.5443361 C107.66573,58.2121946 103.066151,62.8069017 97.3922821,62.8069017 Z M97.3922821,57.059865 C99.8887842,57.059865 101.912599,55.0381938 101.912599,52.5443361 C101.912599,50.0504783 99.8887842,48.0288072 97.3922821,48.0288072 C94.8957801,48.0288072 92.8719652,50.0504783 92.8719652,52.5443361 C92.8719652,55.0381938 94.8957801,57.059865 97.3922821,57.059865 Z" id="Oval-6" fill="#505050" fill-rule="nonzero"></path>
                            <path d="M97.3922821,63.4226557 C91.3779817,63.4226557 86.5024278,58.5522661 86.5024278,52.5443361 C86.5024278,46.5364061 91.3779817,41.6660165 97.3922821,41.6660165 C103.406583,41.6660165 108.282136,46.5364061 108.282136,52.5443361 C108.282136,58.5522661 103.406583,63.4226557 97.3922821,63.4226557 Z M97.3922821,61.3701425 C102.271809,61.3701425 106.227447,57.4186944 106.227447,52.5443361 C106.227447,47.6699778 102.271809,43.7185296 97.3922821,43.7185296 C92.5127553,43.7185296 88.5571173,47.6699778 88.5571173,52.5443361 C88.5571173,57.4186944 92.5127553,61.3701425 97.3922821,61.3701425 Z" id="Oval-6" fill="#505050" fill-rule="nonzero"></path>
                            <polygon id="Line" fill="#505050" fill-rule="nonzero" points="31.1028623 47.6183046 0.127261197 47.6183046 0.127261197 50.0813203 31.1028623 50.0813203"></polygon>
                            <polygon id="Line" fill="#505050" fill-rule="nonzero" points="30.6919244 41.0502626 5.03398927 41.0502626 5.03398927 42.6922731 30.6919244 42.6922731"></polygon>
                            <polygon id="Line" fill="#505050" fill-rule="nonzero" points="30.4864554 34.0717179 10.6330181 34.0717179 10.6330181 35.3032258 30.4864554 35.3032258"></polygon>
                        </g>
                    </g>
                    <g id="Group-6-Copy-3" transform="translate(0.000000, 42.697674)">
                        <circle id="Oval-2" stroke="#F3883D" stroke-width="5" fill="#FFFFFF" cx="24.2790698" cy="24.2790698" r="24.2790698"></circle>
                        <text id="2" font-family="WalkwayBlack, Walkway Black" font-size="36" font-weight="700" letter-spacing="0.719999969" fill="#505050">
                            <tspan x="14.1500478" y="35.1220134">2</tspan>
                        </text>
                    </g>
                </g>
            </g>
        </g>
    </g>
</svg>