<?xml version="1.0" encoding="UTF-8"?>
<svg width="188px" height="150px" viewBox="0 0 188 150" version="1.1" xmlns="http://www.w3.org/2000/svg" xmlns:xlink="http://www.w3.org/1999/xlink">
    <!-- Generator: Sketch 43.2 (39069) - http://www.bohemiancoding.com/sketch -->
    <title>Group 13</title>
    <desc>Created with Sketch.</desc>
    <defs></defs>
    <g id="Final-mockups" stroke="none" stroke-width="1" fill="none" fill-rule="evenodd">
        <g id="Artboard-2" transform="translate(-715.000000, -773.000000)">
            <g id="How-It-WOrks" transform="translate(-3.000000, 615.000000)">
                <g id="Group-13" transform="translate(721.000000, 163.000000)">
                    <g id="Group-9">
                        <circle id="Oval-4-Copy-2" stroke="#505050" stroke-width="10" cx="110.186916" cy="69.8130841" r="69.8130841"></circle>
                        <g id="Group-6-Copy-4" transform="translate(0.000000, 42.897196)">
                            <circle id="Oval-2" stroke="#F3883D" stroke-width="5" fill="#FFFFFF" cx="24.3925234" cy="24.3925234" r="24.3925234"></circle>
                            <text id="3" font-family="WalkwayBlack, Walkway Black" font-size="36" font-weight="700" letter-spacing="0.719999969" fill="#505050">
                                <tspan x="14.2208424" y="35.1552938">3</tspan>
                            </text>
                        </g>
                    </g>
                    <g id="Plate-Knife-Fork" transform="translate(61.401869, 38.691589)">
                        <g id="Plate" transform="translate(0.000000, 1.682243)" stroke="#505050" stroke-width="3">
                            <circle id="Oval-8" cx="29.4392523" cy="29.4392523" r="29.4392523"></circle>
                            <circle id="Oval-8" fill="#505050" cx="29.4392523" cy="29.4392523" r="20.1869159"></circle>
                        </g>
                        <g id="Fork" transform="translate(81.933859, 0.595517)" fill-rule="nonzero" fill="#505050">
                            <path d="M14.7040838,27.0789869 C15.5344065,26.0461465 16.0443878,24.7561936 16.1482711,23.613478 C16.2185698,22.8401921 16.0556808,18.8423742 15.7215166,12.3015096 C15.6946071,11.7747893 15.6668037,11.2364017 15.6381842,10.6875815 C15.5230648,8.47999692 15.399733,6.19763466 15.2764023,3.97042587 C15.2332369,3.19091018 15.1931539,2.47395075 15.1571803,1.83579721 C15.144588,1.61241522 15.1334082,1.41483029 15.1237694,1.24507383 C15.1179835,1.14317384 15.1139988,1.07322633 15.1119334,1.03708183 C15.0772803,0.430653589 14.5575813,-0.0328617925 13.951153,0.00179124991 C13.3447248,0.0364442923 12.8812094,0.556143356 12.9158625,1.1625716 C12.9179061,1.19833459 12.9218826,1.26813837 12.9276532,1.36976981 C12.9372753,1.53923239 12.9484383,1.73651927 12.9610135,1.95959818 C12.9969474,2.59704723 13.0369899,3.31328259 13.0801135,4.09204446 C13.2033227,6.31705727 13.326531,8.59713449 13.4415155,10.8021317 C13.4700955,11.3501957 13.4978592,11.8878119 13.5247282,12.4137406 C13.8425992,18.635687 14.0126519,22.809323 13.9576512,23.4143307 C13.7940742,25.2136775 12.3816691,26.9705717 10.2033843,27.1685976 L9.1459254,27.2647302 L9.20482455,28.3249149 C9.80632481,39.1519196 10.8012396,59.8356741 10.694234,60.798724 C10.4677604,62.836987 9.85102551,63.828168 8.07639392,63.828168 C7.4689764,63.828168 6.97656721,64.3205772 6.97656721,64.9279948 C6.97656721,65.5354123 7.4689764,66.0278215 8.07639392,66.0278215 C9.86876409,66.0278215 11.1799022,65.2903063 11.9789611,64.0061046 C12.5171469,63.1411631 12.7482687,62.2311209 12.8804338,61.0416351 C13.0063759,59.9081561 12.0908228,40.7697902 11.4550206,29.1798992 C12.7798989,28.8418866 13.8765887,28.1083101 14.7040838,27.0789869 Z M3.27914714,61.0414147 C3.41104755,62.2307034 3.64169015,63.1405301 4.17880209,64.0053345 C4.97658464,65.2898448 6.28613284,66.0278215 8.07639392,66.0278215 C8.68381144,66.0278215 9.17622063,65.5354123 9.17622063,64.9279948 C9.17622063,64.3205772 8.68381144,63.828168 8.07639392,63.828168 C6.30699465,63.828168 5.69143686,62.8370579 5.46539584,60.7989444 C5.3585665,59.8357108 6.35163326,39.152377 6.95206003,28.3248032 L7.01083556,27.2648964 L5.95367586,27.1686141 C3.78087805,26.9707235 2.37126643,25.2140769 2.20797018,23.4145121 C2.15305663,22.8093513 2.32279037,18.6358744 2.64009227,12.4136378 C2.66691196,11.8877083 2.69462465,11.3500914 2.7231522,10.8020268 C2.8379256,8.59702719 2.9609076,6.3169479 3.08389053,4.09193309 C3.12693497,3.31317053 3.16690394,2.59693451 3.20277185,1.95948482 C3.21532403,1.73640564 3.22646645,1.53911848 3.23607091,1.36965563 C3.24183098,1.26802395 3.24580018,1.19822004 3.24784005,1.1624567 C3.28242964,0.556024836 2.81885988,0.0363742764 2.21242801,0.00178469035 C1.60599615,-0.0328048957 1.08634559,0.430764864 1.051756,1.03719673 C1.04969443,1.07334088 1.04571707,1.14328826 1.03994181,1.24518801 C1.03032072,1.4149442 1.0191615,1.61252886 1.0065923,1.83591058 C0.970684823,2.47406347 0.930675515,3.19102224 0.887589491,3.97053724 C0.764485399,6.19774404 0.641380373,8.48010421 0.526472545,10.6876865 C0.497905703,11.2365059 0.470153321,11.7748928 0.443293346,12.3016124 C0.109757866,18.8421868 -0.0528383598,22.8401637 0.0173173148,23.6132965 C0.120982077,24.7557077 0.629938371,26.0454372 1.45868704,27.078217 C2.28463199,28.1075029 3.37937221,28.8412358 4.70197762,29.1795195 C4.06737045,40.7688645 3.1534546,59.9080998 3.27914714,61.0414147 Z" id="Combined-Shape"></path>
                            <path d="M5.195316,1.09982671 L5.195316,17.7413964 C5.195316,18.3488139 5.6877252,18.8412231 6.29514272,18.8412231 C6.90256024,18.8412231 7.39496943,18.3488139 7.39496943,17.7413964 L7.39496943,1.09982671 C7.39496943,0.492409193 6.90256024,1.66678717e-13 6.29514272,1.66678717e-13 C5.6877252,1.66678717e-13 5.195316,0.492409193 5.195316,1.09982671 Z" id="Path-6"></path>
                            <path d="M8.75781841,1.09982671 L8.75781841,17.7413964 C8.75781841,18.3488139 9.2502276,18.8412231 9.85764512,18.8412231 C10.4650626,18.8412231 10.9574718,18.3488139 10.9574718,17.7413964 L10.9574718,1.09982671 C10.9574718,0.492409193 10.4650626,1.3115158e-13 9.85764512,1.3115158e-13 C9.2502276,1.3115158e-13 8.75781841,0.492409193 8.75781841,1.09982671 Z" id="Path-6-Copy"></path>
                        </g>
                        <path d="M63.9470181,34.0766489 C63.8179315,32.5276103 64.2848676,21.8347741 64.758208,14.4191075 C64.9595659,11.2645006 66.8011156,8.05866148 69.479158,5.48689059 C72.0810561,2.98824247 74.7759058,1.62779898 75.8668843,3.1863397 C76.2920491,3.79371787 76.3968568,6.46943106 76.4540372,13.2493969 C76.4960273,18.2282168 76.4795858,24.9197137 76.4154676,32.9024286 C76.3789321,37.4511014 76.328001,42.2789994 76.2663371,47.241481 C76.2202361,50.9515099 76.1708426,54.5219528 76.1214486,57.822726 C76.1041602,58.9780329 76.0881063,60.0171282 76.0736983,60.9237494 C76.0686551,61.2410985 76.0641776,61.5192299 76.0603174,61.7561107 C76.0580005,61.8982862 76.0564048,61.9950845 76.0555787,62.0446541 L76.0398264,62.9897872 L75.0978272,63.0682872 C75.0528688,63.0720337 74.9783806,63.0769369 74.8775371,63.081611 C73.8689893,63.1283572 72.7083072,63.0609995 71.5777845,62.783225 C69.1114016,62.1772237 67.5229948,60.6971727 67.600965,58.2021244 C67.6620761,57.4518523 67.8287776,54.0344723 68.0755943,48.6045046 C68.085824,48.3794502 68.0961802,48.1511854 68.1066658,47.9196552 C68.2056307,45.734427 68.4200081,40.917822 68.509394,38.9096178 C65.8214733,38.2337089 64.1322686,36.2996552 63.9470181,34.0766489 Z M74.0323825,57.7914644 C74.0817513,54.4923738 74.1311207,50.9236767 74.1771983,47.2155213 C74.2388266,42.2559142 74.289726,37.4310094 74.326235,32.8856476 C74.3902688,24.913431 74.4066854,18.2320673 74.3648115,13.2670169 C74.3411189,10.4577463 74.2989168,8.23564911 74.237086,6.65712624 C74.2048831,5.83499516 74.1675063,5.19263475 74.1255347,4.74188605 C73.9993698,4.78104302 73.8562959,4.84428996 73.6998928,4.92324708 C72.8877789,5.33322727 71.8851172,6.07309042 70.9263137,6.99384612 C68.5919964,9.23553178 67.0064441,11.995721 66.8432649,14.5521963 C66.3803417,21.8046596 65.9129099,32.5088469 66.0291012,33.903142 C66.1526995,35.3863224 67.4579819,36.7212702 69.7283424,37.0174042 L70.6803976,37.1415853 L70.6368008,38.1007147 C70.6291121,38.269865 70.3191089,45.2478392 70.1938265,48.0141789 C70.1833358,48.245823 70.1729744,48.4742033 70.1627393,48.6993748 C69.9161478,54.1243884 69.7519305,57.4956208 69.6885824,58.2915776 C69.6575895,59.6074975 70.4726117,60.3602369 72.0763072,60.7542721 C72.7017737,60.907952 73.3618854,60.9823616 73.9829063,61.0008886 C73.99906,59.9845607 74.015104,58.9461098 74.0323825,57.7914644 Z" id="Knife" fill="#505050" fill-rule="nonzero"></path>
                    </g>
                </g>
            </g>
        </g>
    </g>
</svg>