<?xml version="1.0" encoding="UTF-8"?>
<svg width="388px" height="44px" viewBox="0 0 388 44" version="1.1" xmlns="http://www.w3.org/2000/svg" xmlns:xlink="http://www.w3.org/1999/xlink">
    <!-- Generator: Sketch 43.2 (39069) - http://www.bohemiancoding.com/sketch -->
    <title>Artboard 5</title>
    <desc>Created with Sketch.</desc>
    <defs>
        <rect id="path-1" x="0" y="0" width="185" height="40" rx="7"></rect>
    </defs>
    <g id="Page-1" stroke="none" stroke-width="1" fill="none" fill-rule="evenodd">
        <g id="Artboard-5">
            <g id="Group-4" transform="translate(1.000000, 2.000000)">
                <g id="Rectangle-5">
                    <use fill="#FFFFFF" fill-rule="evenodd" xlink:href="#path-1"></use>
                    <rect stroke="#979797" stroke-width="1" x="0.5" y="0.5" width="184" height="39" rx="7"></rect>
                </g>
                <path d="M35.512,13.8 L38.232,13.8 L41.288,22.248 L44.36,13.8 L46.968,13.8 L42.52,25 L39.912,25 L35.512,13.8 Z M48.152,16.392 L50.616,16.392 L50.616,25 L48.152,25 L48.152,16.392 Z M50.336,12.952 C50.5866679,13.2080013 50.712,13.5386646 50.712,13.944 C50.712,14.3493354 50.5866679,14.6799987 50.336,14.936 C50.0853321,15.1920013 49.7626686,15.32 49.368,15.32 C48.9839981,15.32 48.6666679,15.1893346 48.416,14.928 C48.1653321,14.6666654 48.04,14.3386686 48.04,13.944 C48.04,13.5386646 48.1653321,13.2080013 48.416,12.952 C48.6666679,12.6959987 48.9839981,12.568 49.368,12.568 C49.7626686,12.568 50.0853321,12.6959987 50.336,12.952 Z M59.84,17.512 C60.5600036,18.312004 60.92,19.4266595 60.92,20.856 C60.92,21.1120013 60.9146667,21.3093326 60.904,21.448 L54.728,21.448 C54.8666674,21.9920027 55.1333314,22.4159985 55.528,22.72 C55.9226686,23.0240015 56.3973306,23.176 56.952,23.176 C57.3573354,23.176 57.7466648,23.0986674 58.12,22.944 C58.4933352,22.7893326 58.8293318,22.5626682 59.128,22.264 L60.424,23.576 C59.9866645,24.0666691 59.4560031,24.4426654 58.832,24.704 C58.2079969,24.9653346 57.5120038,25.096 56.744,25.096 C55.8373288,25.096 55.0453367,24.9146685 54.368,24.552 C53.6906633,24.1893315 53.1680018,23.6773366 52.8,23.016 C52.4319982,22.3546634 52.248,21.5920043 52.248,20.728 C52.248,19.853329 52.4346648,19.08267 52.808,18.416 C53.1813352,17.74933 53.7039966,17.2320018 54.376,16.864 C55.0480034,16.4959982 55.8159957,16.312 56.68,16.312 C58.0666736,16.312 59.1199964,16.711996 59.84,17.512 Z M58.6,19.992 C58.5786666,19.4266638 58.397335,18.973335 58.056,18.632 C57.714665,18.290665 57.2613362,18.12 56.696,18.12 C56.162664,18.12 55.7173351,18.2879983 55.36,18.624 C55.0026649,18.9600017 54.7760005,19.4159971 54.68,19.992 L58.6,19.992 Z M61.304,16.408 L63.816,16.392 L65.736,22.552 L67.592,16.392 L70.008,16.392 L71.896,22.552 L73.784,16.392 L76.216,16.392 L73.08,25 L70.616,25 L68.76,19.32 L66.92,25 L64.456,25 L61.304,16.408 Z M89.16,14.816 C89.9386706,15.4933367 90.328,16.4506605 90.328,17.688 C90.328,18.9893398 89.9360039,19.9999964 89.152,20.72 C88.3679961,21.4400036 87.2666738,21.8 85.848,21.8 L83.624,21.8 L83.624,25 L81.096,25 L81.096,13.8 L85.848,13.8 C87.2773405,13.8 88.3813294,14.1386633 89.16,14.816 Z M87.36,19.2 C87.7386686,18.874665 87.928,18.3973365 87.928,17.768 C87.928,17.1493302 87.7386686,16.6826682 87.36,16.368 C86.9813314,16.0533318 86.4346702,15.896 85.72,15.896 L83.624,15.896 L83.624,19.688 L85.72,19.688 C86.4346702,19.688 86.9813314,19.525335 87.36,19.2 Z M98.192,16.856 C98.8906702,17.2186685 99.4319981,17.7306634 99.816,18.392 C100.200002,19.0533366 100.392,19.821329 100.392,20.696 C100.392,21.5600043 100.200002,22.32533 99.816,22.992 C99.4319981,23.65867 98.8906702,24.1759982 98.192,24.544 C97.4933298,24.9120018 96.6906712,25.096 95.784,25.096 C94.8666621,25.096 94.0586702,24.9120018 93.36,24.544 C92.6613298,24.1759982 92.1200019,23.65867 91.736,22.992 C91.3519981,22.32533 91.16,21.5600043 91.16,20.696 C91.16,19.821329 91.3519981,19.0533366 91.736,18.392 C92.1200019,17.7306634 92.6613298,17.2186685 93.36,16.856 C94.0586702,16.4933315 94.8666621,16.312 95.784,16.312 C96.6906712,16.312 97.4933298,16.4933315 98.192,16.856 Z M94.224,19.016 C93.823998,19.4533355 93.624,20.0239965 93.624,20.728 C93.624,21.4320035 93.823998,22.0026645 94.224,22.44 C94.624002,22.8773355 95.1439968,23.096 95.784,23.096 C96.4133365,23.096 96.927998,22.8773355 97.328,22.44 C97.728002,22.0026645 97.928,21.4320035 97.928,20.728 C97.928,20.0239965 97.728002,19.4533355 97.328,19.016 C96.927998,18.5786645 96.4133365,18.36 95.784,18.36 C95.1439968,18.36 94.624002,18.5786645 94.224,19.016 Z M105.656,16.728 C106.136002,16.4506653 106.695997,16.3066667 107.336,16.296 L107.336,18.616 C107.250666,18.6053333 107.122668,18.6 106.952,18.6 C106.194663,18.6 105.594669,18.8053313 105.152,19.216 C104.709331,19.6266687 104.488,20.1733299 104.488,20.856 L104.488,25 L102.024,25 L102.024,16.392 L104.488,16.392 L104.488,17.944 C104.786668,17.410664 105.175998,17.0053347 105.656,16.728 Z M114.008,24.52 C113.687998,24.712001 113.333335,24.8586662 112.944,24.96 C112.554665,25.0613338 112.162669,25.112 111.768,25.112 C110.967996,25.112 110.317336,24.882669 109.816,24.424 C109.314664,23.965331 109.064,23.3093376 109.064,22.456 L109.064,18.472 L107.864,18.472 L107.864,16.776 L109.064,16.776 L109.064,14.408 L111.512,14.408 L111.512,16.776 L113.848,16.776 L113.848,18.488 L111.512,18.488 L111.512,22.04 C111.512,22.7013366 111.773331,23.032 112.296,23.032 C112.658668,23.032 113.058664,22.9253344 113.496,22.712 L114.008,24.52 Z M118.696,15.304 C118.503999,15.4746675 118.408,15.7253317 118.408,16.056 L118.408,16.776 L120.44,16.776 L120.44,18.488 L118.408,18.488 L118.408,25 L115.96,25 L115.96,18.488 L114.808,18.488 L114.808,16.776 L115.96,16.776 L115.96,15.96 C115.96,15.3413302 116.101332,14.8106689 116.384,14.368 C116.666668,13.9253311 117.047998,13.5893345 117.528,13.36 C118.008002,13.1306655 118.54133,13.016 119.128,13.016 C119.682669,13.016 120.247997,13.1333322 120.824,13.368 L120.456,15.288 C120.295999,15.2239997 120.125334,15.1680002 119.944,15.12 C119.762666,15.0719998 119.592001,15.048 119.432,15.048 C119.133332,15.048 118.888001,15.1333325 118.696,15.304 Z M127.872,16.856 C128.57067,17.2186685 129.111998,17.7306634 129.496,18.392 C129.880002,19.0533366 130.072,19.821329 130.072,20.696 C130.072,21.5600043 129.880002,22.32533 129.496,22.992 C129.111998,23.65867 128.57067,24.1759982 127.872,24.544 C127.17333,24.9120018 126.370671,25.096 125.464,25.096 C124.546662,25.096 123.73867,24.9120018 123.04,24.544 C122.34133,24.1759982 121.800002,23.65867 121.416,22.992 C121.031998,22.32533 120.84,21.5600043 120.84,20.696 C120.84,19.821329 121.031998,19.0533366 121.416,18.392 C121.800002,17.7306634 122.34133,17.2186685 123.04,16.856 C123.73867,16.4933315 124.546662,16.312 125.464,16.312 C126.370671,16.312 127.17333,16.4933315 127.872,16.856 Z M123.904,19.016 C123.503998,19.4533355 123.304,20.0239965 123.304,20.728 C123.304,21.4320035 123.503998,22.0026645 123.904,22.44 C124.304002,22.8773355 124.823997,23.096 125.464,23.096 C126.093336,23.096 126.607998,22.8773355 127.008,22.44 C127.408002,22.0026645 127.608,21.4320035 127.608,20.728 C127.608,20.0239965 127.408002,19.4533355 127.008,19.016 C126.607998,18.5786645 126.093336,18.36 125.464,18.36 C124.823997,18.36 124.304002,18.5786645 123.904,19.016 Z M131.784,13.128 L134.248,13.128 L134.248,25 L131.784,25 L131.784,13.128 Z M136.712,16.392 L139.176,16.392 L139.176,25 L136.712,25 L136.712,16.392 Z M138.896,12.952 C139.146668,13.2080013 139.272,13.5386646 139.272,13.944 C139.272,14.3493354 139.146668,14.6799987 138.896,14.936 C138.645332,15.1920013 138.322669,15.32 137.928,15.32 C137.543998,15.32 137.226668,15.1893346 136.976,14.928 C136.725332,14.6666654 136.6,14.3386686 136.6,13.944 C136.6,13.5386646 136.725332,13.2080013 136.976,12.952 C137.226668,12.6959987 137.543998,12.568 137.928,12.568 C138.322669,12.568 138.645332,12.6959987 138.896,12.952 Z M147.84,16.856 C148.53867,17.2186685 149.079998,17.7306634 149.464,18.392 C149.848002,19.0533366 150.04,19.821329 150.04,20.696 C150.04,21.5600043 149.848002,22.32533 149.464,22.992 C149.079998,23.65867 148.53867,24.1759982 147.84,24.544 C147.14133,24.9120018 146.338671,25.096 145.432,25.096 C144.514662,25.096 143.70667,24.9120018 143.008,24.544 C142.30933,24.1759982 141.768002,23.65867 141.384,22.992 C140.999998,22.32533 140.808,21.5600043 140.808,20.696 C140.808,19.821329 140.999998,19.0533366 141.384,18.392 C141.768002,17.7306634 142.30933,17.2186685 143.008,16.856 C143.70667,16.4933315 144.514662,16.312 145.432,16.312 C146.338671,16.312 147.14133,16.4933315 147.84,16.856 Z M143.872,19.016 C143.471998,19.4533355 143.272,20.0239965 143.272,20.728 C143.272,21.4320035 143.471998,22.0026645 143.872,22.44 C144.272002,22.8773355 144.791997,23.096 145.432,23.096 C146.061336,23.096 146.575998,22.8773355 146.976,22.44 C147.376002,22.0026645 147.576,21.4320035 147.576,20.728 C147.576,20.0239965 147.376002,19.4533355 146.976,19.016 C146.575998,18.5786645 146.061336,18.36 145.432,18.36 C144.791997,18.36 144.272002,18.5786645 143.872,19.016 Z" id="View-Portfolio" fill="#5F5F5F"></path>
            </g>
            <g id="Group-5" transform="translate(202.000000, 2.000000)">
                <rect id="Rectangle-5" fill="#FED136" x="0" y="0" width="185" height="40" rx="7"></rect>
                <path d="M35.512,13.8 L38.232,13.8 L41.288,22.248 L44.36,13.8 L46.968,13.8 L42.52,25 L39.912,25 L35.512,13.8 Z M48.152,16.392 L50.616,16.392 L50.616,25 L48.152,25 L48.152,16.392 Z M50.336,12.952 C50.5866679,13.2080013 50.712,13.5386646 50.712,13.944 C50.712,14.3493354 50.5866679,14.6799987 50.336,14.936 C50.0853321,15.1920013 49.7626686,15.32 49.368,15.32 C48.9839981,15.32 48.6666679,15.1893346 48.416,14.928 C48.1653321,14.6666654 48.04,14.3386686 48.04,13.944 C48.04,13.5386646 48.1653321,13.2080013 48.416,12.952 C48.6666679,12.6959987 48.9839981,12.568 49.368,12.568 C49.7626686,12.568 50.0853321,12.6959987 50.336,12.952 Z M59.84,17.512 C60.5600036,18.312004 60.92,19.4266595 60.92,20.856 C60.92,21.1120013 60.9146667,21.3093326 60.904,21.448 L54.728,21.448 C54.8666674,21.9920027 55.1333314,22.4159985 55.528,22.72 C55.9226686,23.0240015 56.3973306,23.176 56.952,23.176 C57.3573354,23.176 57.7466648,23.0986674 58.12,22.944 C58.4933352,22.7893326 58.8293318,22.5626682 59.128,22.264 L60.424,23.576 C59.9866645,24.0666691 59.4560031,24.4426654 58.832,24.704 C58.2079969,24.9653346 57.5120038,25.096 56.744,25.096 C55.8373288,25.096 55.0453367,24.9146685 54.368,24.552 C53.6906633,24.1893315 53.1680018,23.6773366 52.8,23.016 C52.4319982,22.3546634 52.248,21.5920043 52.248,20.728 C52.248,19.853329 52.4346648,19.08267 52.808,18.416 C53.1813352,17.74933 53.7039966,17.2320018 54.376,16.864 C55.0480034,16.4959982 55.8159957,16.312 56.68,16.312 C58.0666736,16.312 59.1199964,16.711996 59.84,17.512 Z M58.6,19.992 C58.5786666,19.4266638 58.397335,18.973335 58.056,18.632 C57.714665,18.290665 57.2613362,18.12 56.696,18.12 C56.162664,18.12 55.7173351,18.2879983 55.36,18.624 C55.0026649,18.9600017 54.7760005,19.4159971 54.68,19.992 L58.6,19.992 Z M61.304,16.408 L63.816,16.392 L65.736,22.552 L67.592,16.392 L70.008,16.392 L71.896,22.552 L73.784,16.392 L76.216,16.392 L73.08,25 L70.616,25 L68.76,19.32 L66.92,25 L64.456,25 L61.304,16.408 Z M89.16,14.816 C89.9386706,15.4933367 90.328,16.4506605 90.328,17.688 C90.328,18.9893398 89.9360039,19.9999964 89.152,20.72 C88.3679961,21.4400036 87.2666738,21.8 85.848,21.8 L83.624,21.8 L83.624,25 L81.096,25 L81.096,13.8 L85.848,13.8 C87.2773405,13.8 88.3813294,14.1386633 89.16,14.816 Z M87.36,19.2 C87.7386686,18.874665 87.928,18.3973365 87.928,17.768 C87.928,17.1493302 87.7386686,16.6826682 87.36,16.368 C86.9813314,16.0533318 86.4346702,15.896 85.72,15.896 L83.624,15.896 L83.624,19.688 L85.72,19.688 C86.4346702,19.688 86.9813314,19.525335 87.36,19.2 Z M98.192,16.856 C98.8906702,17.2186685 99.4319981,17.7306634 99.816,18.392 C100.200002,19.0533366 100.392,19.821329 100.392,20.696 C100.392,21.5600043 100.200002,22.32533 99.816,22.992 C99.4319981,23.65867 98.8906702,24.1759982 98.192,24.544 C97.4933298,24.9120018 96.6906712,25.096 95.784,25.096 C94.8666621,25.096 94.0586702,24.9120018 93.36,24.544 C92.6613298,24.1759982 92.1200019,23.65867 91.736,22.992 C91.3519981,22.32533 91.16,21.5600043 91.16,20.696 C91.16,19.821329 91.3519981,19.0533366 91.736,18.392 C92.1200019,17.7306634 92.6613298,17.2186685 93.36,16.856 C94.0586702,16.4933315 94.8666621,16.312 95.784,16.312 C96.6906712,16.312 97.4933298,16.4933315 98.192,16.856 Z M94.224,19.016 C93.823998,19.4533355 93.624,20.0239965 93.624,20.728 C93.624,21.4320035 93.823998,22.0026645 94.224,22.44 C94.624002,22.8773355 95.1439968,23.096 95.784,23.096 C96.4133365,23.096 96.927998,22.8773355 97.328,22.44 C97.728002,22.0026645 97.928,21.4320035 97.928,20.728 C97.928,20.0239965 97.728002,19.4533355 97.328,19.016 C96.927998,18.5786645 96.4133365,18.36 95.784,18.36 C95.1439968,18.36 94.624002,18.5786645 94.224,19.016 Z M105.656,16.728 C106.136002,16.4506653 106.695997,16.3066667 107.336,16.296 L107.336,18.616 C107.250666,18.6053333 107.122668,18.6 106.952,18.6 C106.194663,18.6 105.594669,18.8053313 105.152,19.216 C104.709331,19.6266687 104.488,20.1733299 104.488,20.856 L104.488,25 L102.024,25 L102.024,16.392 L104.488,16.392 L104.488,17.944 C104.786668,17.410664 105.175998,17.0053347 105.656,16.728 Z M114.008,24.52 C113.687998,24.712001 113.333335,24.8586662 112.944,24.96 C112.554665,25.0613338 112.162669,25.112 111.768,25.112 C110.967996,25.112 110.317336,24.882669 109.816,24.424 C109.314664,23.965331 109.064,23.3093376 109.064,22.456 L109.064,18.472 L107.864,18.472 L107.864,16.776 L109.064,16.776 L109.064,14.408 L111.512,14.408 L111.512,16.776 L113.848,16.776 L113.848,18.488 L111.512,18.488 L111.512,22.04 C111.512,22.7013366 111.773331,23.032 112.296,23.032 C112.658668,23.032 113.058664,22.9253344 113.496,22.712 L114.008,24.52 Z M118.696,15.304 C118.503999,15.4746675 118.408,15.7253317 118.408,16.056 L118.408,16.776 L120.44,16.776 L120.44,18.488 L118.408,18.488 L118.408,25 L115.96,25 L115.96,18.488 L114.808,18.488 L114.808,16.776 L115.96,16.776 L115.96,15.96 C115.96,15.3413302 116.101332,14.8106689 116.384,14.368 C116.666668,13.9253311 117.047998,13.5893345 117.528,13.36 C118.008002,13.1306655 118.54133,13.016 119.128,13.016 C119.682669,13.016 120.247997,13.1333322 120.824,13.368 L120.456,15.288 C120.295999,15.2239997 120.125334,15.1680002 119.944,15.12 C119.762666,15.0719998 119.592001,15.048 119.432,15.048 C119.133332,15.048 118.888001,15.1333325 118.696,15.304 Z M127.872,16.856 C128.57067,17.2186685 129.111998,17.7306634 129.496,18.392 C129.880002,19.0533366 130.072,19.821329 130.072,20.696 C130.072,21.5600043 129.880002,22.32533 129.496,22.992 C129.111998,23.65867 128.57067,24.1759982 127.872,24.544 C127.17333,24.9120018 126.370671,25.096 125.464,25.096 C124.546662,25.096 123.73867,24.9120018 123.04,24.544 C122.34133,24.1759982 121.800002,23.65867 121.416,22.992 C121.031998,22.32533 120.84,21.5600043 120.84,20.696 C120.84,19.821329 121.031998,19.0533366 121.416,18.392 C121.800002,17.7306634 122.34133,17.2186685 123.04,16.856 C123.73867,16.4933315 124.546662,16.312 125.464,16.312 C126.370671,16.312 127.17333,16.4933315 127.872,16.856 Z M123.904,19.016 C123.503998,19.4533355 123.304,20.0239965 123.304,20.728 C123.304,21.4320035 123.503998,22.0026645 123.904,22.44 C124.304002,22.8773355 124.823997,23.096 125.464,23.096 C126.093336,23.096 126.607998,22.8773355 127.008,22.44 C127.408002,22.0026645 127.608,21.4320035 127.608,20.728 C127.608,20.0239965 127.408002,19.4533355 127.008,19.016 C126.607998,18.5786645 126.093336,18.36 125.464,18.36 C124.823997,18.36 124.304002,18.5786645 123.904,19.016 Z M131.784,13.128 L134.248,13.128 L134.248,25 L131.784,25 L131.784,13.128 Z M136.712,16.392 L139.176,16.392 L139.176,25 L136.712,25 L136.712,16.392 Z M138.896,12.952 C139.146668,13.2080013 139.272,13.5386646 139.272,13.944 C139.272,14.3493354 139.146668,14.6799987 138.896,14.936 C138.645332,15.1920013 138.322669,15.32 137.928,15.32 C137.543998,15.32 137.226668,15.1893346 136.976,14.928 C136.725332,14.6666654 136.6,14.3386686 136.6,13.944 C136.6,13.5386646 136.725332,13.2080013 136.976,12.952 C137.226668,12.6959987 137.543998,12.568 137.928,12.568 C138.322669,12.568 138.645332,12.6959987 138.896,12.952 Z M147.84,16.856 C148.53867,17.2186685 149.079998,17.7306634 149.464,18.392 C149.848002,19.0533366 150.04,19.821329 150.04,20.696 C150.04,21.5600043 149.848002,22.32533 149.464,22.992 C149.079998,23.65867 148.53867,24.1759982 147.84,24.544 C147.14133,24.9120018 146.338671,25.096 145.432,25.096 C144.514662,25.096 143.70667,24.9120018 143.008,24.544 C142.30933,24.1759982 141.768002,23.65867 141.384,22.992 C140.999998,22.32533 140.808,21.5600043 140.808,20.696 C140.808,19.821329 140.999998,19.0533366 141.384,18.392 C141.768002,17.7306634 142.30933,17.2186685 143.008,16.856 C143.70667,16.4933315 144.514662,16.312 145.432,16.312 C146.338671,16.312 147.14133,16.4933315 147.84,16.856 Z M143.872,19.016 C143.471998,19.4533355 143.272,20.0239965 143.272,20.728 C143.272,21.4320035 143.471998,22.0026645 143.872,22.44 C144.272002,22.8773355 144.791997,23.096 145.432,23.096 C146.061336,23.096 146.575998,22.8773355 146.976,22.44 C147.376002,22.0026645 147.576,21.4320035 147.576,20.728 C147.576,20.0239965 147.376002,19.4533355 146.976,19.016 C146.575998,18.5786645 146.061336,18.36 145.432,18.36 C144.791997,18.36 144.272002,18.5786645 143.872,19.016 Z" id="View-Portfolio" fill="#FFFFFF"></path>
            </g>
        </g>
    </g>
</svg>